<svg width="15" height="15" viewBox="0 0 15 15" fill="none" xmlns="http://www.w3.org/2000/svg">
<path d="M9.375 1.875H13.125V5.625" stroke="url(#paint0_linear_4785_51194)" stroke-width="1.25" stroke-linecap="round" stroke-linejoin="round"/>
<path d="M6.25 8.75L13.125 1.875" stroke="url(#paint1_linear_4785_51194)" stroke-width="1.25" stroke-linecap="round" stroke-linejoin="round"/>
<path d="M11.25 8.125V11.875C11.25 12.2065 11.1183 12.5245 10.8839 12.7589C10.6495 12.9933 10.3315 13.125 10 13.125H3.125C2.79348 13.125 2.47554 12.9933 2.24112 12.7589C2.0067 12.5245 1.875 12.2065 1.875 11.875V5C1.875 4.66848 2.0067 4.35054 2.24112 4.11612C2.47554 3.8817 2.79348 3.75 3.125 3.75H6.875" stroke="url(#paint2_linear_4785_51194)" stroke-width="1.25" stroke-linecap="round" stroke-linejoin="round"/>
<defs>
<linearGradient id="paint0_linear_4785_51194" x1="9.31783" y1="2.17295" x2="13.6286" y2="3.00003" gradientUnits="userSpaceOnUse">
<stop offset="0.0413" stop-color="#FF0075"/>
<stop offset="0.5591" stop-color="#FF4A15"/>
<stop offset="1" stop-color="#FFCB45"/>
</linearGradient>
<linearGradient id="paint1_linear_4785_51194" x1="6.1452" y1="2.42125" x2="14.0483" y2="3.93756" gradientUnits="userSpaceOnUse">
<stop offset="0.0413" stop-color="#FF0075"/>
<stop offset="0.5591" stop-color="#FF4A15"/>
<stop offset="1" stop-color="#FFCB45"/>
</linearGradient>
<linearGradient id="paint2_linear_4785_51194" x1="1.73209" y1="4.49488" x2="12.5091" y2="6.56258" gradientUnits="userSpaceOnUse">
<stop offset="0.0413" stop-color="#FF0075"/>
<stop offset="0.5591" stop-color="#FF4A15"/>
<stop offset="1" stop-color="#FFCB45"/>
</linearGradient>
</defs>
</svg>
